<?xml version="1.0" encoding="utf-8"?>
<!-- Generator: Adobe Illustrator 23.0.2, SVG Export Plug-In . SVG Version: 6.00 Build 0)  -->
<svg version="1.1" id="Lager_1" xmlns="http://www.w3.org/2000/svg" xmlns:xlink="http://www.w3.org/1999/xlink" x="0px" y="0px"
	 viewBox="0 0 400 450" style="enable-background:new 0 0 400 450;" xml:space="preserve">
<style type="text/css">
	.st0{fill:#A4C639;}
	.st1{fill:#FFFFFF;}
	.st2{fill:#0F6D64;}
	.st3{fill:#C9234A;}
	.st4{fill:none;stroke:#A4C639;stroke-width:14;stroke-linecap:round;stroke-miterlimit:10;}
	.st5{fill:none;}
	
	.st6 {
		fill:#85A7CF;
		transform-origin: 200px 270px;
		animation: spin 10s linear infinite;
		animation-delay: 0.8s;
	}

	.st7 {
		fill:none;stroke:#FFFFFF;
		transform-origin: 200px 270px;
		animation: spin 10s linear infinite;
		animation-delay: 0.8s;
	}

	.st6:hover {
	
	}

	@keyframes spin {
  		100% {
		-moz-transform: rotate(360deg);
		-webkit-transform: rotate(360deg);
		transform: rotate(360deg);
		}
	}

</style>
<circle class="st0" cx="300.21" cy="35.16" r="15.12"/>
<g>
	<circle class="st0" cx="107.54" cy="15.76" r="15.12"/>
	<path class="st0" d="M76.31,179.02c0-68.43,55.47-123.91,123.91-123.91s123.91,55.47,123.91,123.91H76.31z"/>
	<path class="st0" d="M278.18,374.92H122.82c-25.54,0-46.23-20.7-46.23-46.23V186.83h247.82v141.87
		C324.41,354.23,303.72,374.92,278.18,374.92z"/>
	<circle class="st1" cx="247.94" cy="139.94" r="14.24"/>
	<circle class="st1" cx="159.75" cy="125.99" r="14.24"/>
	<circle class="st2" cx="160.04" cy="128.5" r="6.7"/>
	<circle class="st3" cx="248.23" cy="135.19" r="6.7"/>
	<path class="st0" d="M40.03,336.7L40.03,336.7c-11.72,0-21.21-9.49-21.21-21.21V208.32c0-11.72,9.49-21.21,21.21-21.21l0,0
		c11.72,0,21.21,9.49,21.21,21.21v107.17C61.23,327.19,51.74,336.7,40.03,336.7z"/>
	<path class="st0" d="M360.97,307.67L360.97,307.67c-11.72,0-21.21-9.49-21.21-21.21v-78.14c0-11.72,9.49-21.21,21.21-21.21l0,0
		c11.72,0,21.21,9.49,21.21,21.21v78.14C382.18,298.18,372.69,307.67,360.97,307.67z"/>
	<path class="st0" d="M137.15,450L137.15,450c-11.72,0-21.21-9.49-21.21-21.21V321.62c0-11.72,9.49-21.21,21.21-21.21l0,0
		c11.72,0,21.21,9.49,21.21,21.21v107.17C158.36,440.51,148.87,450,137.15,450z"/>
	<path class="st0" d="M254.93,450L254.93,450c-11.72,0-21.21-9.49-21.21-21.21V321.62c0-11.72,9.49-21.21,21.21-21.21l0,0
		c11.72,0,21.21,9.49,21.21,21.21v107.17C276.13,440.51,266.63,450,254.93,450z"/>
	<line class="st4" x1="108.43" y1="16.89" x2="155.28" y2="98.02"/>
	<line class="st4" x1="297.97" y1="36.8" x2="221.36" y2="90.7"/>
</g>
<rect id="_x3C_Segment_x3E_" x="18.82" class="st5" width="363.36" height="450"/>
<rect id="_x3C_Segment_x3E__1_" x="18.82" class="st5" width="363.36" height="450"/>
<g>
	<path class="st6" d="M262.04,273.95c0.91-0.28,1.7-1.31,1.75-2.26c0,0,0.07-1.25,0.07-2.76c0-2.15-0.19-4.65-0.19-4.65
		c-0.07-0.96-0.89-1.94-1.81-2.2l-12.63-3.48c-0.92-0.26-1.89-1.21-2.16-2.14l-2.28-6.63c-0.36-0.89-0.19-2.24,0.38-3.01l7.8-10.51
		c0.57-0.77,0.59-2.04,0.05-2.83l-4.47-5.9c-0.61-0.74-1.85-1.06-2.74-0.73l-12.23,4.6c-0.89,0.34-2.25,0.13-3-0.46l-5.73-4.02
		c-0.81-0.5-1.47-1.71-1.46-2.66l0.13-12.91c0.01-0.96-0.73-2-1.63-2.31l-7.21-2.14c-0.93-0.23-2.12,0.23-2.65,1.03l-7.06,10.71
		c-0.53,0.8-1.74,1.4-2.69,1.33c0,0-1.16-0.08-2.64-0.08c-2.07,0-4.37,0.21-4.37,0.21c-0.95,0.09-2.19-0.48-2.74-1.26l-7.28-10.24
		c-0.56-0.78-1.76-1.19-2.68-0.91l-7.28,2.58c-0.89,0.36-1.58,1.44-1.53,2.4l0.56,12.44c0.04,0.96-0.57,2.18-1.36,2.72l-5.59,4.22
		c-0.73,0.62-2.07,0.87-2.98,0.57l-11.55-3.88c-0.91-0.31-2.12,0.07-2.7,0.83l-4.5,6.53c-0.51,0.81-0.44,2.09,0.16,2.84l7.54,9.45
		c0.6,0.75,0.82,2.09,0.49,2.99l-2.04,6.7c-0.23,0.93-1.17,1.93-2.08,2.21l-11.39,3.57c-0.91,0.28-1.7,1.31-1.75,2.26
		c0,0-0.06,1.23-0.06,2.73c0,2.38,0.24,5.32,0.24,5.32c0.08,0.95,0.9,1.94,1.82,2.2l11.47,3.16c0.92,0.26,1.89,1.21,2.16,2.14
		l2.28,6.63c0.36,0.89,0.19,2.24-0.38,3.01l-7.1,9.56c-0.57,0.77-0.6,2.04-0.06,2.84l4.83,6.44c0.61,0.74,1.84,1.07,2.74,0.73
		l11.18-4.2c0.89-0.34,2.25-0.13,3,0.46l5.73,4.02c0.81,0.5,1.47,1.71,1.46,2.66l-0.12,12.12c-0.01,0.96,0.72,2.01,1.62,2.34
		l7.56,2.37c0.92,0.24,2.11-0.21,2.64-1.01l6.72-10.19c0.53-0.8,1.74-1.4,2.69-1.33c0,0,1.16,0.08,2.64,0.08
		c2.07,0,4.37-0.21,4.37-0.21c0.95-0.09,2.19,0.48,2.74,1.26l7.22,10.15c0.56,0.78,1.76,1.2,2.68,0.94l7.32-2.44
		c0.89-0.34,1.59-1.41,1.54-2.36l-0.57-12.56c-0.04-0.96,0.57-2.18,1.36-2.72l5.59-4.22c0.73-0.62,2.07-0.87,2.98-0.57l12.16,4.09
		c0.91,0.31,2.13-0.06,2.72-0.82l4.36-6.13c0.52-0.8,0.46-2.07-0.14-2.82l-8.05-10.09c-0.6-0.75-0.82-2.09-0.49-2.99l2.04-6.7
		c0.23-0.93,1.17-1.93,2.08-2.21L262.04,273.95z M200,304.99c-20.01,0-36.24-16.22-36.24-36.24s16.22-36.24,36.24-36.24
		s36.24,16.22,36.24,36.24S220.01,304.99,200,304.99z"/>
	<path class="st7" d="M262.04,273.95c0.91-0.28,1.7-1.31,1.75-2.26c0,0,0.07-1.25,0.07-2.76c0-2.15-0.19-4.65-0.19-4.65
		c-0.07-0.96-0.89-1.94-1.81-2.2l-12.63-3.48c-0.92-0.26-1.89-1.21-2.16-2.14l-2.28-6.63c-0.36-0.89-0.19-2.24,0.38-3.01l7.8-10.51
		c0.57-0.77,0.59-2.04,0.05-2.83l-4.47-5.9c-0.61-0.74-1.85-1.06-2.74-0.73l-12.23,4.6c-0.89,0.34-2.25,0.13-3-0.46l-5.73-4.02
		c-0.81-0.5-1.47-1.71-1.46-2.66l0.13-12.91c0.01-0.96-0.73-2-1.63-2.31l-7.21-2.14c-0.93-0.23-2.12,0.23-2.65,1.03l-7.06,10.71
		c-0.53,0.8-1.74,1.4-2.69,1.33c0,0-1.16-0.08-2.64-0.08c-2.07,0-4.37,0.21-4.37,0.21c-0.95,0.09-2.19-0.48-2.74-1.26l-7.28-10.24
		c-0.56-0.78-1.76-1.19-2.68-0.91l-7.28,2.58c-0.89,0.36-1.58,1.44-1.53,2.4l0.56,12.44c0.04,0.96-0.57,2.18-1.36,2.72l-5.59,4.22
		c-0.73,0.62-2.07,0.87-2.98,0.57l-11.55-3.88c-0.91-0.31-2.12,0.07-2.7,0.83l-4.5,6.53c-0.51,0.81-0.44,2.09,0.16,2.84l7.54,9.45
		c0.6,0.75,0.82,2.09,0.49,2.99l-2.04,6.7c-0.23,0.93-1.17,1.93-2.08,2.21l-11.39,3.57c-0.91,0.28-1.7,1.31-1.75,2.26
		c0,0-0.06,1.23-0.06,2.73c0,2.38,0.24,5.32,0.24,5.32c0.08,0.95,0.9,1.94,1.82,2.2l11.47,3.16c0.92,0.26,1.89,1.21,2.16,2.14
		l2.28,6.63c0.36,0.89,0.19,2.24-0.38,3.01l-7.1,9.56c-0.57,0.77-0.6,2.04-0.06,2.84l4.83,6.44c0.61,0.74,1.84,1.07,2.74,0.73
		l11.18-4.2c0.89-0.34,2.25-0.13,3,0.46l5.73,4.02c0.81,0.5,1.47,1.71,1.46,2.66l-0.12,12.12c-0.01,0.96,0.72,2.01,1.62,2.34
		l7.56,2.37c0.92,0.24,2.11-0.21,2.64-1.01l6.72-10.19c0.53-0.8,1.74-1.4,2.69-1.33c0,0,1.16,0.08,2.64,0.08
		c2.07,0,4.37-0.21,4.37-0.21c0.95-0.09,2.19,0.48,2.74,1.26l7.22,10.15c0.56,0.78,1.76,1.2,2.68,0.94l7.32-2.44
		c0.89-0.34,1.59-1.41,1.54-2.36l-0.57-12.56c-0.04-0.96,0.57-2.18,1.36-2.72l5.59-4.22c0.73-0.62,2.07-0.87,2.98-0.57l12.16,4.09
		c0.91,0.31,2.13-0.06,2.72-0.82l4.36-6.13c0.52-0.8,0.46-2.07-0.14-2.82l-8.05-10.09c-0.6-0.75-0.82-2.09-0.49-2.99l2.04-6.7
		c0.23-0.93,1.17-1.93,2.08-2.21L262.04,273.95z M200,304.99c-20.01,0-36.24-16.22-36.24-36.24s16.22-36.24,36.24-36.24
		s36.24,16.22,36.24,36.24S220.01,304.99,200,304.99z"/>
</g>
</svg>
