<?xml version="1.0" encoding="utf-8"?>
<!-- Generator: Adobe Illustrator 23.0.2, SVG Export Plug-In . SVG Version: 6.00 Build 0)  -->
<svg version="1.1" id="Lager_1" xmlns="http://www.w3.org/2000/svg" xmlns:xlink="http://www.w3.org/1999/xlink" x="0px" y="0px"
	 viewBox="0 0 1920 1080" style="enable-background:new 0 0 1920 1080;" xml:space="preserve">
<style type="text/css">
	.st0{fill:#85A7CF;}
	.st1{fill:none;stroke:#FFFFFF;stroke-miterlimit:10;}
</style>
<g>
	<path class="st0" d="M1067.36,548.85c1.57-0.49,2.93-2.25,3.02-3.89c0,0,0.12-2.15,0.12-4.75c0-3.71-0.32-8.01-0.32-8.01
		c-0.12-1.65-1.53-3.35-3.12-3.79l-21.76-5.99c-1.59-0.44-3.26-2.09-3.72-3.68l-3.93-11.42c-0.62-1.53-0.33-3.86,0.66-5.19
		l13.45-18.12c0.98-1.33,1.02-3.52,0.08-4.87l-7.71-10.16c-1.05-1.27-3.18-1.83-4.72-1.25l-21.08,7.92
		c-1.54,0.58-3.87,0.22-5.17-0.8l-9.88-6.92c-1.4-0.87-2.53-2.94-2.51-4.59l0.22-22.25c0.02-1.65-1.25-3.44-2.81-3.98l-12.43-3.69
		c-1.6-0.4-3.65,0.4-4.56,1.77l-12.17,18.46c-0.91,1.38-3,2.41-4.64,2.3c0,0-2-0.14-4.55-0.14c-3.56,0-7.53,0.37-7.53,0.37
		c-1.64,0.15-3.77-0.82-4.73-2.17l-12.55-17.64c-0.96-1.34-3.03-2.05-4.61-1.56l-12.55,4.45c-1.53,0.62-2.72,2.48-2.64,4.13
		l0.97,21.44c0.07,1.65-0.98,3.75-2.35,4.68l-9.63,7.27c-1.26,1.06-3.57,1.5-5.14,0.98l-19.91-6.69c-1.56-0.53-3.66,0.12-4.66,1.43
		l-7.76,11.25c-0.88,1.4-0.75,3.6,0.28,4.89l13,16.29c1.03,1.29,1.41,3.61,0.84,5.16l-3.52,11.55c-0.4,1.6-2.01,3.32-3.58,3.81
		l-19.63,6.16c-1.57,0.49-2.93,2.25-3.02,3.89c0,0-0.11,2.12-0.11,4.71c0,4.11,0.42,9.17,0.42,9.17c0.14,1.64,1.55,3.35,3.14,3.79
		l19.77,5.45c1.59,0.44,3.26,2.09,3.72,3.68l3.93,11.42c0.62,1.53,0.33,3.86-0.66,5.19l-12.23,16.48c-0.98,1.33-1.03,3.52-0.1,4.89
		l8.33,11.1c1.05,1.27,3.17,1.84,4.72,1.26l19.27-7.24c1.54-0.58,3.87-0.22,5.17,0.8l9.88,6.92c1.4,0.87,2.53,2.94,2.51,4.59
		l-0.21,20.88c-0.02,1.65,1.24,3.46,2.79,4.03l13.03,4.08c1.59,0.42,3.64-0.36,4.55-1.74l11.58-17.56c0.91-1.38,3-2.41,4.64-2.3
		c0,0,2,0.14,4.55,0.14c3.56,0,7.53-0.37,7.53-0.37c1.64-0.15,3.77,0.82,4.73,2.17l12.45,17.5c0.96,1.34,3.04,2.07,4.62,1.62
		l12.62-4.21c1.54-0.59,2.74-2.43,2.66-4.07l-0.98-21.64c-0.07-1.65,0.98-3.75,2.35-4.68l9.63-7.27c1.26-1.06,3.57-1.5,5.14-0.98
		l20.95,7.04c1.56,0.53,3.67-0.11,4.69-1.41l7.52-10.56c0.9-1.38,0.79-3.57-0.24-4.86l-13.87-17.38c-1.03-1.29-1.41-3.61-0.84-5.16
		l3.52-11.55c0.4-1.6,2.01-3.32,3.58-3.81L1067.36,548.85z M960.44,602.35c-34.49,0-62.45-27.96-62.45-62.45
		s27.96-62.45,62.45-62.45s62.45,27.96,62.45,62.45S994.93,602.35,960.44,602.35z"/>
	<path class="st1" d="M1067.36,548.85c1.57-0.49,2.93-2.25,3.02-3.89c0,0,0.12-2.15,0.12-4.75c0-3.71-0.32-8.01-0.32-8.01
		c-0.12-1.65-1.53-3.35-3.12-3.79l-21.76-5.99c-1.59-0.44-3.26-2.09-3.72-3.68l-3.93-11.42c-0.62-1.53-0.33-3.86,0.66-5.19
		l13.45-18.12c0.98-1.33,1.02-3.52,0.08-4.87l-7.71-10.16c-1.05-1.27-3.18-1.83-4.72-1.25l-21.08,7.92
		c-1.54,0.58-3.87,0.22-5.17-0.8l-9.88-6.92c-1.4-0.87-2.53-2.94-2.51-4.59l0.22-22.25c0.02-1.65-1.25-3.44-2.81-3.98l-12.43-3.69
		c-1.6-0.4-3.65,0.4-4.56,1.77l-12.17,18.46c-0.91,1.38-3,2.41-4.64,2.3c0,0-2-0.14-4.55-0.14c-3.56,0-7.53,0.37-7.53,0.37
		c-1.64,0.15-3.77-0.82-4.73-2.17l-12.55-17.64c-0.96-1.34-3.03-2.05-4.61-1.56l-12.55,4.45c-1.53,0.62-2.72,2.48-2.64,4.13
		l0.97,21.44c0.07,1.65-0.98,3.75-2.35,4.68l-9.63,7.27c-1.26,1.06-3.57,1.5-5.14,0.98l-19.91-6.69c-1.56-0.53-3.66,0.12-4.66,1.43
		l-7.76,11.25c-0.88,1.4-0.75,3.6,0.28,4.89l13,16.29c1.03,1.29,1.41,3.61,0.84,5.16l-3.52,11.55c-0.4,1.6-2.01,3.32-3.58,3.81
		l-19.63,6.16c-1.57,0.49-2.93,2.25-3.02,3.89c0,0-0.11,2.12-0.11,4.71c0,4.11,0.42,9.17,0.42,9.17c0.14,1.64,1.55,3.35,3.14,3.79
		l19.77,5.45c1.59,0.44,3.26,2.09,3.72,3.68l3.93,11.42c0.62,1.53,0.33,3.86-0.66,5.19l-12.23,16.48c-0.98,1.33-1.03,3.52-0.1,4.89
		l8.33,11.1c1.05,1.27,3.17,1.84,4.72,1.26l19.27-7.24c1.54-0.58,3.87-0.22,5.17,0.8l9.88,6.92c1.4,0.87,2.53,2.94,2.51,4.59
		l-0.21,20.88c-0.02,1.65,1.24,3.46,2.79,4.03l13.03,4.08c1.59,0.42,3.64-0.36,4.55-1.74l11.58-17.56c0.91-1.38,3-2.41,4.64-2.3
		c0,0,2,0.14,4.55,0.14c3.56,0,7.53-0.37,7.53-0.37c1.64-0.15,3.77,0.82,4.73,2.17l12.45,17.5c0.96,1.34,3.04,2.07,4.62,1.62
		l12.62-4.21c1.54-0.59,2.74-2.43,2.66-4.07l-0.98-21.64c-0.07-1.65,0.98-3.75,2.35-4.68l9.63-7.27c1.26-1.06,3.57-1.5,5.14-0.98
		l20.95,7.04c1.56,0.53,3.67-0.11,4.69-1.41l7.52-10.56c0.9-1.38,0.79-3.57-0.24-4.86l-13.87-17.38c-1.03-1.29-1.41-3.61-0.84-5.16
		l3.52-11.55c0.4-1.6,2.01-3.32,3.58-3.81L1067.36,548.85z M960.44,602.35c-34.49,0-62.45-27.96-62.45-62.45
		s27.96-62.45,62.45-62.45s62.45,27.96,62.45,62.45S994.93,602.35,960.44,602.35z"/>
</g>
</svg>
